<svg width="154" height="28" viewBox="0 0 154 28" fill="none" xmlns="http://www.w3.org/2000/svg">
<path d="M20.7852 18.668C20.5273 21.3984 19.5195 23.5312 17.7617 25.0664C16.0039 26.5898 13.666 27.3516 10.748 27.3516C8.70898 27.3516 6.91016 26.8711 5.35156 25.9102C3.80469 24.9375 2.60938 23.5605 1.76562 21.7793C0.921875 19.998 0.482422 17.9297 0.447266 15.5742V13.1836C0.447266 10.7695 0.875 8.64258 1.73047 6.80273C2.58594 4.96289 3.81055 3.54492 5.4043 2.54883C7.00977 1.55273 8.86133 1.05469 10.959 1.05469C13.7832 1.05469 16.0566 1.82227 17.7793 3.35742C19.502 4.89258 20.5039 7.06055 20.7852 9.86133H16.3555C16.1445 8.02148 15.6055 6.69727 14.7383 5.88867C13.8828 5.06836 12.623 4.6582 10.959 4.6582C9.02539 4.6582 7.53711 5.36719 6.49414 6.78516C5.46289 8.19141 4.93555 10.2598 4.91211 12.9902V15.2578C4.91211 18.0234 5.4043 20.1328 6.38867 21.5859C7.38477 23.0391 8.83789 23.7656 10.748 23.7656C12.4941 23.7656 13.8066 23.373 14.6855 22.5879C15.5645 21.8027 16.1211 20.4961 16.3555 18.668H20.7852ZM23.5625 17.3145C23.5625 15.4512 23.9316 13.7754 24.6699 12.2871C25.4082 10.7871 26.4453 9.63867 27.7812 8.8418C29.1172 8.0332 30.6523 7.62891 32.3867 7.62891C34.9531 7.62891 37.0332 8.45508 38.627 10.1074C40.2324 11.7598 41.0996 13.9512 41.2285 16.6816L41.2461 17.6836C41.2461 19.5586 40.8828 21.2344 40.1562 22.7109C39.4414 24.1875 38.4102 25.3301 37.0625 26.1387C35.7266 26.9473 34.1797 27.3516 32.4219 27.3516C29.7383 27.3516 27.5879 26.4609 25.9707 24.6797C24.3652 22.8867 23.5625 20.502 23.5625 17.5254V17.3145ZM27.834 17.6836C27.834 19.6406 28.2383 21.1758 29.0469 22.2891C29.8555 23.3906 30.9805 23.9414 32.4219 23.9414C33.8633 23.9414 34.9824 23.3789 35.7793 22.2539C36.5879 21.1289 36.9922 19.4824 36.9922 17.3145C36.9922 15.3926 36.5762 13.8691 35.7441 12.7441C34.9238 11.6191 33.8047 11.0566 32.3867 11.0566C30.9922 11.0566 29.8848 11.6133 29.0645 12.7266C28.2441 13.8281 27.834 15.4805 27.834 17.6836ZM44.0586 17.3496C44.0586 14.4199 44.7383 12.0703 46.0977 10.3008C47.457 8.51953 49.2793 7.62891 51.5645 7.62891C53.5801 7.62891 55.209 8.33203 56.4512 9.73828V0H60.7227V27H56.8555L56.6445 25.0312C55.3672 26.5781 53.6621 27.3516 51.5293 27.3516C49.3027 27.3516 47.498 26.4551 46.1152 24.6621C44.7441 22.8691 44.0586 20.4316 44.0586 17.3496ZM48.3301 17.7188C48.3301 19.6523 48.6992 21.1641 49.4375 22.2539C50.1875 23.332 51.248 23.8711 52.6191 23.8711C54.3652 23.8711 55.6426 23.0918 56.4512 21.5332V13.4121C55.666 11.8887 54.4004 11.127 52.6543 11.127C51.2715 11.127 50.2051 11.6777 49.4551 12.7793C48.7051 13.8691 48.3301 15.5156 48.3301 17.7188ZM73.5547 27.3516C70.8477 27.3516 68.6504 26.502 66.9629 24.8027C65.2871 23.0918 64.4492 20.8184 64.4492 17.9824V17.4551C64.4492 15.5566 64.8125 13.8633 65.5391 12.375C66.2773 10.875 67.3086 9.70898 68.6328 8.87695C69.957 8.04492 71.4336 7.62891 73.0625 7.62891C75.6523 7.62891 77.6504 8.45508 79.0566 10.1074C80.4746 11.7598 81.1836 14.0977 81.1836 17.1211V18.8438H68.7559C68.8848 20.4141 69.4062 21.6562 70.3203 22.5703C71.2461 23.4844 72.4062 23.9414 73.8008 23.9414C75.7578 23.9414 77.3516 23.1504 78.582 21.5684L80.8848 23.7656C80.123 24.9023 79.1035 25.7871 77.8262 26.4199C76.5605 27.041 75.1367 27.3516 73.5547 27.3516ZM73.0449 11.0566C71.873 11.0566 70.9238 11.4668 70.1973 12.2871C69.4824 13.1074 69.0254 14.25 68.8262 15.7148H76.9648V15.3984C76.8711 13.9688 76.4902 12.8906 75.8223 12.1641C75.1543 11.4258 74.2285 11.0566 73.0449 11.0566ZM104.457 18.668C104.199 21.3984 103.191 23.5312 101.434 25.0664C99.6758 26.5898 97.3379 27.3516 94.4199 27.3516C92.3809 27.3516 90.582 26.8711 89.0234 25.9102C87.4766 24.9375 86.2812 23.5605 85.4375 21.7793C84.5938 19.998 84.1543 17.9297 84.1191 15.5742V13.1836C84.1191 10.7695 84.5469 8.64258 85.4023 6.80273C86.2578 4.96289 87.4824 3.54492 89.0762 2.54883C90.6816 1.55273 92.5332 1.05469 94.6309 1.05469C97.4551 1.05469 99.7285 1.82227 101.451 3.35742C103.174 4.89258 104.176 7.06055 104.457 9.86133H100.027C99.8164 8.02148 99.2773 6.69727 98.4102 5.88867C97.5547 5.06836 96.2949 4.6582 94.6309 4.6582C92.6973 4.6582 91.209 5.36719 90.166 6.78516C89.1348 8.19141 88.6074 10.2598 88.584 12.9902V15.2578C88.584 18.0234 89.0762 20.1328 90.0605 21.5859C91.0566 23.0391 92.5098 23.7656 94.4199 23.7656C96.166 23.7656 97.4785 23.373 98.3574 22.5879C99.2363 21.8027 99.793 20.4961 100.027 18.668H104.457ZM112.578 27H108.307V0H112.578V27ZM128.768 25.1367C127.514 26.6133 125.732 27.3516 123.424 27.3516C121.361 27.3516 119.797 26.748 118.73 25.541C117.676 24.334 117.148 22.5879 117.148 20.3027V7.98047H121.42V20.25C121.42 22.6641 122.422 23.8711 124.426 23.8711C126.5 23.8711 127.9 23.127 128.627 21.6387V7.98047H132.898V27H128.873L128.768 25.1367ZM153.939 17.6836C153.939 20.6367 153.277 22.9863 151.953 24.7324C150.641 26.4785 148.83 27.3516 146.521 27.3516C144.295 27.3516 142.561 26.5488 141.318 24.9434L141.107 27H137.24V0H141.512V9.80859C142.742 8.35547 144.4 7.62891 146.486 7.62891C148.807 7.62891 150.629 8.49023 151.953 10.2129C153.277 11.9355 153.939 14.3438 153.939 17.4375V17.6836ZM149.668 17.3145C149.668 15.252 149.305 13.7051 148.578 12.6738C147.852 11.6426 146.797 11.127 145.414 11.127C143.562 11.127 142.262 11.9355 141.512 13.5527V21.3926C142.273 23.0449 143.586 23.8711 145.449 23.8711C146.785 23.8711 147.816 23.373 148.543 22.377C149.27 21.3809 149.645 19.875 149.668 17.8594V17.3145Z" fill="#B4B0B0"/>
</svg>
