<svg width="140" height="143" viewBox="0 0 140 143" fill="none" xmlns="http://www.w3.org/2000/svg">
<rect x="1.5" y="93.5" width="137" height="13" fill="#EC5242" stroke="white" stroke-width="3"/>
<mask id="path-2-inside-1" fill="white">
<path fill-rule="evenodd" clip-rule="evenodd" d="M45.0585 108L25.1052 140L23.2346 143H26.77H113.23H116.765L114.895 140L94.9415 108H91.4061L111.359 140H28.6407L48.5939 108H45.0585Z"/>
</mask>
<path fill-rule="evenodd" clip-rule="evenodd" d="M45.0585 108L25.1052 140L23.2346 143H26.77H113.23H116.765L114.895 140L94.9415 108H91.4061L111.359 140H28.6407L48.5939 108H45.0585Z" fill="white"/>
<path d="M45.0585 108V103H42.2838L40.8157 105.354L45.0585 108ZM25.1052 140L29.348 142.646L25.1052 140ZM23.2346 143L18.9918 140.354L14.2246 148H23.2346V143ZM116.765 143V148H125.775L121.008 140.354L116.765 143ZM114.895 140L119.138 137.354L119.138 137.354L114.895 140ZM94.9415 108L99.1843 105.354L97.7162 103H94.9415V108ZM91.4061 108V103H82.396L87.1633 110.646L91.4061 108ZM111.359 140V145H120.369L115.602 137.354L111.359 140ZM28.6407 140L24.3979 137.354L19.6306 145H28.6407V140ZM48.5939 108L52.8367 110.646L57.6039 103H48.5939V108ZM40.8157 105.354L20.8625 137.354L29.348 142.646L49.3012 110.646L40.8157 105.354ZM20.8625 137.354L18.9918 140.354L27.4774 145.646L29.348 142.646L20.8625 137.354ZM23.2346 148H26.77V138H23.2346V148ZM26.77 148H113.23V138H26.77V148ZM113.23 148H116.765V138H113.23V148ZM121.008 140.354L119.138 137.354L110.652 142.646L112.523 145.646L121.008 140.354ZM119.138 137.354L99.1843 105.354L90.6988 110.646L110.652 142.646L119.138 137.354ZM94.9415 103H91.4061V113H94.9415V103ZM115.602 137.354L95.6489 105.354L87.1633 110.646L107.117 142.646L115.602 137.354ZM28.6407 145H111.359V135H28.6407V145ZM44.3511 105.354L24.3979 137.354L32.8834 142.646L52.8367 110.646L44.3511 105.354ZM48.5939 103H45.0585V113H48.5939V103Z" fill="white" mask="url(#path-2-inside-1)"/>
<rect x="12.5" y="2.5" width="115" height="87" stroke="white" stroke-width="5"/>
<path d="M41.2031 48.9082L51.5742 52.8457V57.1172L36.8613 50.5605V47.168L51.5742 40.6289V44.9004L41.2031 48.9082ZM64.5469 50.8418H55.3184V47.3965H64.5469V50.8418ZM76.3594 50.8418H67.1309V47.3965H76.3594V50.8418ZM88.1719 50.8418H78.9434V47.3965H88.1719V50.8418ZM102.621 48.8203L91.7578 44.8301V40.6289L106.945 47.168V50.5605L91.7578 57.0996V52.8984L102.621 48.8203Z" fill="white"/>
</svg>
