<svg width="141" height="165" viewBox="0 0 141 165" fill="none" xmlns="http://www.w3.org/2000/svg">
<circle cx="70" cy="25" r="22.5" stroke="white" stroke-width="5"/>
<mask id="path-2-inside-1" fill="white">
<path fill-rule="evenodd" clip-rule="evenodd" d="M108.806 75H32C40.216 62.9674 54.3167 55 70.4032 55C86.4897 55 100.59 62.9674 108.806 75Z"/>
</mask>
<path d="M32 75L27.8708 72.1805L22.5315 80H32V75ZM108.806 75V80H118.275L112.936 72.1805L108.806 75ZM32 80H108.806V70H32V80ZM36.1292 77.8195C43.4289 67.1288 55.9958 60 70.4032 60V50C52.6376 50 37.0031 58.8059 27.8708 72.1805L36.1292 77.8195ZM70.4032 60C84.8105 60 97.3774 67.1288 104.677 77.8195L112.936 72.1805C103.803 58.8059 88.1688 50 70.4032 50V60Z" fill="white" mask="url(#path-2-inside-1)"/>
<rect x="1.5" y="73.5" width="137" height="13" fill="#EC5242" stroke="white" stroke-width="3"/>
<path d="M116.411 52.534L116.207 52.5H116C113.337 52.5 111.5 50.5379 111.5 48.5C111.5 46.4621 113.337 44.5 116 44.5C118.663 44.5 120.5 46.4621 120.5 48.5C120.5 49.1387 120.568 49.978 120.62 50.6281C120.645 50.9297 120.666 51.1905 120.675 51.3718C120.716 52.1408 120.656 52.4656 120.615 52.5861C120.571 52.6089 120.478 52.6502 120.308 52.691C119.712 52.8338 118.54 52.8888 116.411 52.534Z" stroke="white" stroke-width="5"/>
<rect x="12.5" y="87.5" width="115" height="75" rx="7.5" stroke="white" stroke-width="5"/>
<rect x="42.5" y="98.5" width="55" height="10" stroke="white" stroke-width="5"/>
<path d="M121.152 50.7281C130.584 57.3935 133.699 62.0912 134.152 72.7281" stroke="white" stroke-width="5"/>
</svg>