<svg width="113" height="28" viewBox="0 0 113 28" fill="none" xmlns="http://www.w3.org/2000/svg">
<path d="M4.26758 7.98047L4.39062 9.9668C5.72656 8.4082 7.55469 7.62891 9.875 7.62891C12.418 7.62891 14.1582 8.60156 15.0957 10.5469C16.4785 8.60156 18.4238 7.62891 20.9316 7.62891C23.0293 7.62891 24.5879 8.20898 25.6074 9.36914C26.6387 10.5293 27.166 12.2402 27.1895 14.502V27H22.918V14.625C22.918 13.418 22.6543 12.5332 22.127 11.9707C21.5996 11.4082 20.7266 11.127 19.5078 11.127C18.5352 11.127 17.7383 11.3906 17.1172 11.918C16.5078 12.4336 16.0801 13.1133 15.834 13.957L15.8516 27H11.5801V14.4844C11.5215 12.2461 10.3789 11.127 8.15234 11.127C6.44141 11.127 5.22852 11.8242 4.51367 13.2188V27H0.242188V7.98047H4.26758ZM39.9512 27.3516C37.2441 27.3516 35.0469 26.502 33.3594 24.8027C31.6836 23.0918 30.8457 20.8184 30.8457 17.9824V17.4551C30.8457 15.5566 31.209 13.8633 31.9355 12.375C32.6738 10.875 33.7051 9.70898 35.0293 8.87695C36.3535 8.04492 37.8301 7.62891 39.459 7.62891C42.0488 7.62891 44.0469 8.45508 45.4531 10.1074C46.8711 11.7598 47.5801 14.0977 47.5801 17.1211V18.8438H35.1523C35.2812 20.4141 35.8027 21.6562 36.7168 22.5703C37.6426 23.4844 38.8027 23.9414 40.1973 23.9414C42.1543 23.9414 43.748 23.1504 44.9785 21.5684L47.2812 23.7656C46.5195 24.9023 45.5 25.7871 44.2227 26.4199C42.957 27.041 41.5332 27.3516 39.9512 27.3516ZM39.4414 11.0566C38.2695 11.0566 37.3203 11.4668 36.5938 12.2871C35.8789 13.1074 35.4219 14.25 35.2227 15.7148H43.3613V15.3984C43.2676 13.9688 42.8867 12.8906 42.2188 12.1641C41.5508 11.4258 40.625 11.0566 39.4414 11.0566ZM55.4727 23.5898H65.5977V27H50.1641V24.2051L59.8145 11.4258H50.3398V7.98047H65.2285V10.6875L55.4727 23.5898ZM73.5605 27H69.2891V7.98047H73.5605V27ZM69.0254 3.04102C69.0254 2.38477 69.2305 1.83984 69.6406 1.40625C70.0625 0.972656 70.6602 0.755859 71.4336 0.755859C72.207 0.755859 72.8047 0.972656 73.2266 1.40625C73.6484 1.83984 73.8594 2.38477 73.8594 3.04102C73.8594 3.68555 73.6484 4.22461 73.2266 4.6582C72.8047 5.08008 72.207 5.29102 71.4336 5.29102C70.6602 5.29102 70.0625 5.08008 69.6406 4.6582C69.2305 4.22461 69.0254 3.68555 69.0254 3.04102ZM82.7715 27H78.5V0H82.7715V27ZM91.9824 27H87.7109V0H91.9824V27ZM108.014 27C107.826 26.6367 107.662 26.0449 107.521 25.2246C106.162 26.6426 104.498 27.3516 102.529 27.3516C100.619 27.3516 99.0605 26.8066 97.8535 25.7168C96.6465 24.627 96.043 23.2793 96.043 21.6738C96.043 19.6465 96.793 18.0938 98.293 17.0156C99.8047 15.9258 101.961 15.3809 104.762 15.3809H107.381V14.1328C107.381 13.1484 107.105 12.3633 106.555 11.7773C106.004 11.1797 105.166 10.8809 104.041 10.8809C103.068 10.8809 102.271 11.127 101.65 11.6191C101.029 12.0996 100.719 12.7148 100.719 13.4648H96.4473C96.4473 12.4219 96.793 11.4492 97.4844 10.5469C98.1758 9.63281 99.1133 8.91797 100.297 8.40234C101.492 7.88672 102.822 7.62891 104.287 7.62891C106.514 7.62891 108.289 8.19141 109.613 9.31641C110.938 10.4297 111.617 12 111.652 14.0273V22.6055C111.652 24.3164 111.893 25.6816 112.373 26.7012V27H108.014ZM103.32 23.9238C104.164 23.9238 104.955 23.7188 105.693 23.3086C106.443 22.8984 107.006 22.3477 107.381 21.6562V18.0703H105.078C103.496 18.0703 102.307 18.3457 101.51 18.8965C100.713 19.4473 100.314 20.2266 100.314 21.2344C100.314 22.0547 100.584 22.7109 101.123 23.2031C101.674 23.6836 102.406 23.9238 103.32 23.9238Z" fill="#DAD3D3"/>
</svg>
