<svg width="102" height="27" viewBox="0 0 102 27" fill="none" xmlns="http://www.w3.org/2000/svg">
<path d="M5.70722 11.68C5.70722 12.112 5.70722 12.664 5.70722 13.336C5.73122 14.008 5.74322 14.704 5.74322 15.424C5.76722 16.12 5.77922 16.804 5.77922 17.476C5.80322 18.124 5.81522 18.64 5.81522 19.024C5.81522 21.088 5.55122 22.684 5.02322 23.812C4.49522 24.94 3.81122 25.504 2.97122 25.504C2.82722 25.504 2.73122 25.396 2.68322 25.18C2.65922 24.964 2.64722 24.676 2.64722 24.316C2.64722 23.956 2.65922 23.56 2.68322 23.128C2.70722 22.672 2.71922 22.204 2.71922 21.724C2.71922 19.996 2.71922 17.812 2.71922 15.172C2.71922 12.508 2.65922 9.556 2.53922 6.316C2.51522 6.172 2.35922 5.896 2.07122 5.488C1.80722 5.08 1.54322 4.648 1.27922 4.192C1.01522 3.712 0.811219 3.268 0.667219 2.86C0.547219 2.452 0.619219 2.188 0.883219 2.068C1.24322 1.852 1.67522 1.828 2.17922 1.996C2.68322 2.164 3.18722 2.428 3.69122 2.788C4.19522 3.124 4.66322 3.508 5.09522 3.94C5.55122 4.372 5.88722 4.744 6.10322 5.056C6.89522 6.28 7.61522 7.528 8.26322 8.8C8.93522 10.048 9.59522 11.32 10.2432 12.616C10.8912 13.912 11.5752 15.244 12.2952 16.612C13.0152 17.956 13.8432 19.324 14.7792 20.716C14.8992 20.908 15.0432 21.112 15.2112 21.328C15.3792 21.544 15.5352 21.652 15.6792 21.652C15.7272 21.652 15.7752 21.496 15.8232 21.184C15.8712 20.872 15.9072 20.464 15.9312 19.96C15.9552 18.424 15.9792 16.924 16.0032 15.46C16.0512 13.972 16.0872 12.556 16.1112 11.212C16.1352 9.868 16.1712 8.608 16.2192 7.432C16.2672 6.256 16.3272 5.176 16.3992 4.192C16.4232 3.76 16.5312 3.34 16.7232 2.932C16.9152 2.524 17.1312 2.164 17.3712 1.852C17.6352 1.516 17.8992 1.252 18.1632 1.06C18.4512 0.867999 18.6912 0.771999 18.8832 0.771999C19.0512 0.771999 19.1712 0.891999 19.2432 1.132C19.3392 1.348 19.3992 1.648 19.4232 2.032C19.4712 2.416 19.4952 2.86 19.4952 3.364C19.4952 3.844 19.4952 4.348 19.4952 4.876C19.4952 6.34 19.4952 7.66 19.4952 8.836C19.5192 9.988 19.5192 11.104 19.4952 12.184C19.4952 13.264 19.4832 14.38 19.4592 15.532C19.4352 16.66 19.3992 17.944 19.3512 19.384C19.3032 20.608 19.1952 21.592 19.0272 22.336C18.8832 23.08 18.6912 23.668 18.4512 24.1C18.2352 24.508 17.9832 24.796 17.6952 24.964C17.4312 25.132 17.1552 25.24 16.8672 25.288C16.0752 25.432 15.3192 25.336 14.5992 25C13.9032 24.688 13.2672 24.208 12.6912 23.56C12.0432 22.84 11.3712 21.928 10.6752 20.824C10.0032 19.72 9.34322 18.556 8.69522 17.332C8.07122 16.108 7.49522 14.896 6.96722 13.696C6.43922 12.496 6.01922 11.44 5.70722 10.528V11.68ZM35.3873 1.24C36.8993 1.24 38.2073 1.576 39.3113 2.248C40.4393 2.896 41.3633 3.76 42.0833 4.84C42.8273 5.896 43.3793 7.096 43.7393 8.44C44.0993 9.76 44.2793 11.092 44.2793 12.436C44.2793 14.068 44.0273 15.652 43.5233 17.188C43.0193 18.7 42.2873 20.044 41.3273 21.22C40.3913 22.372 39.2393 23.296 37.8713 23.992C36.5273 24.688 35.0153 25.036 33.3353 25.036C31.7033 25.036 30.2753 24.748 29.0513 24.172C27.8273 23.596 26.7953 22.804 25.9553 21.796C25.1393 20.764 24.5273 19.564 24.1193 18.196C23.7113 16.804 23.5073 15.292 23.5073 13.66C23.5073 11.932 23.7593 10.312 24.2633 8.8C24.7913 7.288 25.5593 5.98 26.5673 4.876C27.5753 3.748 28.8113 2.86 30.2753 2.212C31.7633 1.564 33.4673 1.24 35.3873 1.24ZM34.8113 4.048C33.4673 4.048 32.2793 4.348 31.2473 4.948C30.2393 5.548 29.3873 6.328 28.6913 7.288C27.9953 8.248 27.4673 9.316 27.1073 10.492C26.7473 11.668 26.5673 12.832 26.5673 13.984C26.5673 14.824 26.6873 15.712 26.9273 16.648C27.1913 17.56 27.5993 18.4 28.1513 19.168C28.7273 19.936 29.4713 20.572 30.3833 21.076C31.2953 21.58 32.3993 21.832 33.6953 21.832C34.9193 21.832 35.9993 21.52 36.9353 20.896C37.8713 20.272 38.6393 19.48 39.2393 18.52C39.8633 17.536 40.3313 16.468 40.6433 15.316C40.9553 14.14 41.1113 13.012 41.1113 11.932C41.1113 11.02 40.9793 10.096 40.7153 9.16C40.4513 8.224 40.0553 7.384 39.5273 6.64C39.0233 5.872 38.3753 5.248 37.5833 4.768C36.7913 4.288 35.8673 4.048 34.8113 4.048ZM60.4849 3.724C60.4369 3.58 60.3769 3.364 60.3049 3.076C60.2569 2.788 60.2209 2.512 60.1969 2.248C60.1729 1.96 60.1969 1.72 60.2689 1.528C60.3409 1.312 60.4849 1.204 60.7009 1.204C61.1089 1.204 61.5289 1.36 61.9609 1.672C62.4169 1.96 62.7769 2.248 63.0409 2.536C63.4009 2.968 63.6889 3.46 63.9049 4.012C64.1449 4.564 64.2649 5.14 64.2649 5.74C64.2649 6.748 64.1089 7.72 63.7969 8.656C62.9569 11.272 62.1049 13.78 61.2409 16.18C60.3769 18.556 59.4529 20.824 58.4689 22.984C58.2769 23.416 58.0849 23.788 57.8929 24.1C57.7009 24.388 57.5089 24.64 57.3169 24.856C57.1489 25.072 56.9689 25.252 56.7769 25.396C56.6089 25.54 56.4289 25.684 56.2369 25.828C56.1889 25.876 56.0449 25.936 55.8049 26.008C55.5889 26.08 55.4569 26.116 55.4089 26.116C55.2409 26.116 55.0849 26.068 54.9409 25.972C54.7969 25.876 54.7249 25.732 54.7249 25.54C54.7249 25.372 54.7249 25.24 54.7249 25.144C54.7489 25.048 54.7729 24.952 54.7969 24.856C54.8209 24.76 54.8329 24.652 54.8329 24.532C54.8569 24.412 54.8689 24.256 54.8689 24.064C54.3169 22.912 53.7289 21.64 53.1049 20.248C52.4809 18.832 51.8569 17.38 51.2329 15.892C50.6089 14.38 49.9969 12.892 49.3969 11.428C48.7969 9.964 48.2449 8.608 47.7409 7.36C47.6209 7.048 47.4289 6.652 47.1649 6.172C46.9249 5.668 46.6969 5.176 46.4809 4.696C46.2889 4.216 46.1569 3.796 46.0849 3.436C46.0129 3.052 46.0849 2.812 46.3009 2.716C46.6609 2.572 47.0809 2.62 47.5609 2.86C48.0649 3.076 48.5569 3.412 49.0369 3.868C49.5409 4.3 49.9969 4.804 50.4049 5.38C50.8369 5.956 51.1609 6.52 51.3769 7.072L56.5969 20.032C56.9809 18.928 57.3529 17.848 57.7129 16.792C58.0969 15.712 58.4569 14.62 58.7929 13.516C59.1529 12.388 59.5129 11.236 59.8729 10.06C60.2329 8.884 60.6169 7.636 61.0249 6.316L60.4849 3.724ZM70.9389 12.436C72.1389 12.34 73.3029 12.256 74.4309 12.184C75.5829 12.112 76.7349 12.064 77.8869 12.04C78.5589 12.016 79.0629 12.1 79.3989 12.292C79.7349 12.46 79.9149 12.604 79.9389 12.724C79.9629 12.916 79.9149 13.156 79.7949 13.444C79.6989 13.732 79.5429 14.02 79.3269 14.308C79.1109 14.596 78.8589 14.848 78.5709 15.064C78.2829 15.256 77.9829 15.352 77.6709 15.352C76.5909 15.352 75.4509 15.34 74.2509 15.316C73.0749 15.268 71.9469 15.22 70.8669 15.172C70.8909 16.468 70.8309 17.776 70.6869 19.096C70.5669 20.392 70.4109 21.436 70.2189 22.228C70.6029 22.276 71.2149 22.324 72.0549 22.372C72.8949 22.42 73.9629 22.444 75.2589 22.444C76.4589 22.444 77.5269 22.384 78.4629 22.264C79.3989 22.12 80.2509 21.976 81.0189 21.832C81.1629 21.976 81.2229 22.168 81.1989 22.408C81.1989 22.648 81.1509 22.9 81.0549 23.164C80.9589 23.404 80.8389 23.632 80.6949 23.848C80.5509 24.04 80.4189 24.172 80.2989 24.244C79.9629 24.436 79.3029 24.664 78.3189 24.928C77.3349 25.168 76.1709 25.312 74.8269 25.36C74.3469 25.384 73.8309 25.384 73.2789 25.36C72.7509 25.36 72.2349 25.336 71.7309 25.288C71.2269 25.264 70.7589 25.216 70.3269 25.144C69.9189 25.096 69.6069 25.048 69.3909 25C69.2949 25.144 69.1629 25.288 68.9949 25.432C68.8269 25.576 68.6349 25.696 68.4189 25.792C68.2269 25.912 68.0109 25.996 67.7709 26.044C67.5549 26.092 67.3509 26.08 67.1589 26.008C66.9909 25.936 66.8829 25.816 66.8349 25.648C66.8109 25.48 66.8109 25.276 66.8349 25.036C66.8589 24.82 66.8949 24.58 66.9429 24.316C67.0149 24.052 67.0749 23.788 67.1229 23.524C67.3389 21.916 67.4709 20.308 67.5189 18.7C67.5909 17.092 67.6269 15.52 67.6269 13.984C67.6269 12.448 67.6029 10.96 67.5549 9.52C67.5069 8.08 67.4709 6.712 67.4469 5.416C66.9429 5.224 66.4989 4.984 66.1149 4.696C65.7309 4.384 65.4549 4 65.2869 3.544C65.2389 3.4 65.2509 3.256 65.3229 3.112C65.3949 2.968 65.4909 2.848 65.6109 2.752C65.7549 2.632 65.8989 2.548 66.0429 2.5C66.1869 2.428 66.2949 2.404 66.3669 2.428C67.2309 2.788 68.2029 2.968 69.2829 2.968C70.9629 2.944 72.5229 2.86 73.9629 2.716C75.4269 2.548 76.9629 2.392 78.5709 2.248C78.7389 2.224 78.9429 2.236 79.1829 2.284C79.4469 2.308 79.6869 2.356 79.9029 2.428C80.1429 2.5 80.3349 2.596 80.4789 2.716C80.6469 2.812 80.7309 2.932 80.7309 3.076C80.7309 3.268 80.6589 3.484 80.5149 3.724C80.3709 3.964 80.1909 4.204 79.9749 4.444C79.7589 4.66 79.5069 4.864 79.2189 5.056C78.9549 5.224 78.7029 5.332 78.4629 5.38C77.1669 5.5 75.9189 5.584 74.7189 5.632C73.5429 5.656 72.2589 5.668 70.8669 5.668L70.9389 12.436ZM84.6476 4.552C84.6476 4.288 84.5156 4.06 84.2516 3.868C84.0116 3.676 83.6756 3.532 83.2436 3.436C83.0756 3.388 82.8596 3.34 82.5956 3.292C82.3556 3.244 82.2236 3.136 82.1996 2.968C82.1996 2.848 82.2356 2.728 82.3076 2.608C82.4036 2.464 82.5116 2.332 82.6316 2.212C82.7516 2.092 82.8836 1.996 83.0276 1.924C83.1716 1.828 83.2916 1.768 83.3876 1.744C84.3716 1.48 85.2476 1.48 86.0156 1.744C86.7836 1.984 87.2756 2.344 87.4916 2.824C88.1156 2.416 88.9076 2.056 89.8676 1.744C90.8276 1.432 91.8476 1.276 92.9276 1.276C94.0556 1.276 95.0516 1.48 95.9156 1.888C96.7796 2.272 97.4996 2.8 98.0756 3.472C98.6756 4.12 99.1196 4.864 99.4076 5.704C99.7196 6.544 99.8756 7.408 99.8756 8.296C99.8756 8.8 99.7916 9.34 99.6236 9.916C99.4556 10.492 99.1676 11.044 98.7596 11.572C98.3516 12.1 97.7876 12.58 97.0676 13.012C96.3716 13.444 95.4716 13.78 94.3676 14.02C94.5596 16.276 95.2316 18.268 96.3836 19.996C97.5356 21.7 99.0476 23.128 100.92 24.28C101.232 24.496 101.4 24.724 101.424 24.964C101.448 25.18 101.364 25.336 101.172 25.432C101.004 25.528 100.632 25.6 100.056 25.648C99.5036 25.696 98.9036 25.624 98.2556 25.432C97.1276 25.072 96.1676 24.484 95.3756 23.668C94.5836 22.828 93.9116 21.892 93.3596 20.86C92.8316 19.804 92.4116 18.724 92.0996 17.62C91.8116 16.492 91.6076 15.46 91.4876 14.524C91.1276 14.548 90.6476 14.584 90.0476 14.632C89.4476 14.656 88.7876 14.668 88.0676 14.668C88.0676 15.508 88.0436 16.336 87.9956 17.152C87.9716 17.968 87.9116 18.796 87.8156 19.636C87.7916 19.852 87.7196 20.284 87.5996 20.932C87.4796 21.556 87.3116 22.216 87.0956 22.912C86.9036 23.608 86.6516 24.232 86.3396 24.784C86.0516 25.312 85.7156 25.576 85.3316 25.576C85.2836 25.576 85.1876 25.54 85.0436 25.468C84.8996 25.42 84.7556 25.336 84.6116 25.216C84.4676 25.096 84.3476 24.952 84.2516 24.784C84.1556 24.616 84.1436 24.424 84.2156 24.208C84.2876 23.992 84.3476 23.656 84.3956 23.2C84.4436 22.744 84.4796 22.216 84.5036 21.616C84.5516 21.016 84.5876 20.368 84.6116 19.672C84.6356 18.976 84.6476 18.268 84.6476 17.548V4.552ZM88.0676 12.832C88.7636 12.736 89.5796 12.616 90.5156 12.472C91.4756 12.328 92.3876 12.1 93.2516 11.788C94.1156 11.452 94.8476 10.996 95.4476 10.42C96.0476 9.844 96.3476 9.064 96.3476 8.08C96.3476 7.768 96.2756 7.372 96.1316 6.892C95.9876 6.412 95.7356 5.956 95.3756 5.524C95.0156 5.092 94.5356 4.72 93.9356 4.408C93.3356 4.096 92.5796 3.94 91.6676 3.94C91.0436 3.94 90.4316 4.024 89.8316 4.192C89.2556 4.336 88.6316 4.612 87.9596 5.02C87.9596 6.796 87.9716 8.284 87.9956 9.484C88.0436 10.66 88.0676 11.776 88.0676 12.832Z" fill="white"/>
</svg>
